<svg xmlns="http://www.w3.org/2000/svg" width="1280" height="440" viewBox="0 0 1280 440"><rect x="80" y="30" width="357" height="380" rx="22" fill="#151a23" stroke="#252c38"/><text x="108" y="76" font-family="Inter, 'Segoe UI', 'Helvetica Neue', Arial, 'Noto Sans', sans-serif" font-size="15" font-weight="700" letter-spacing="2.5" fill="#8a93a6">LAPTOP</text><path d="M359 80 H399 M361 80 L355 54" stroke="#8a93a6" stroke-width="3" stroke-linecap="round" fill="none"/><rect x="153.5" y="112" width="210" height="130" rx="10" fill="#151a23" stroke="#c9d1dd" stroke-width="3"/><rect x="161.5" y="120" width="194" height="7" rx="3.5" fill="#1e2531"/><rect x="161.5" y="133.0" width="94.0" height="101.0" rx="5" fill="#1e2531"/><rect x="261.5" y="133.0" width="94.0" height="101.0" rx="5" fill="#253457"/><path d="M153.5 250 H363.5 L386.5 276 H130.5 Z" fill="#1e2531" stroke="#c9d1dd" stroke-width="3" stroke-linejoin="round"/><path d="M162.5 259 H354.5" stroke="#8a93a6" stroke-width="3" stroke-dasharray="9 5" opacity="0.6"/><path d="M154.5 267 H362.5" stroke="#8a93a6" stroke-width="3" stroke-dasharray="9 5" opacity="0.6"/><circle cx="118" cy="328" r="10" fill="#9ece6a"/><path d="M114 328 l3 3 l6 -6" stroke="#0d1017" stroke-width="2.6" stroke-linecap="round" stroke-linejoin="round" fill="none"/><text x="140" y="334" font-family="Inter, 'Segoe UI', 'Helvetica Neue', Arial, 'Noto Sans', sans-serif" font-size="17" fill="#e8ecf2">Keyboard and touchpad on</text><circle cx="118" cy="364" r="10" fill="#9ece6a"/><path d="M114 364 l3 3 l6 -6" stroke="#0d1017" stroke-width="2.6" stroke-linecap="round" stroke-linejoin="round" fill="none"/><text x="140" y="370" font-family="Inter, 'Segoe UI', 'Helvetica Neue', Arial, 'Noto Sans', sans-serif" font-size="17" fill="#e8ecf2">Screen stays still on your knees</text><rect x="461" y="30" width="357" height="380" rx="22" fill="#151a23" stroke="#252c38"/><text x="489" y="76" font-family="Inter, 'Segoe UI', 'Helvetica Neue', Arial, 'Noto Sans', sans-serif" font-size="15" font-weight="700" letter-spacing="2.5" fill="#8a93a6">TENT</text><path d="M742 82 L760 54 L778 82" stroke="#8a93a6" stroke-width="3" stroke-linecap="round" fill="none"/><rect x="534.5" y="112" width="210" height="130" rx="10" fill="#151a23" stroke="#c9d1dd" stroke-width="3"/><rect x="542.5" y="120" width="194" height="7" rx="3.5" fill="#1e2531"/><rect x="542.5" y="133.0" width="94.0" height="101.0" rx="5" fill="#1e2531"/><rect x="642.5" y="133.0" width="94.0" height="101.0" rx="5" fill="#253457"/><path d="M489.5 272 H789.5" stroke="#252c38" stroke-width="3" stroke-linecap="round"/><path d="M534.5 242 L569.5 272 M744.5 242 L709.5 272" stroke="#c9d1dd" stroke-width="3" stroke-linecap="round"/><path d="M761.5 134 A44 44 0 0 1 761.5 220" stroke="#7aa2f7" stroke-width="3.5" fill="none" stroke-linecap="round"/><path d="M751.5 210 L761.5 221 L773.5 212" stroke="#7aa2f7" stroke-width="3.5" fill="none" stroke-linecap="round" stroke-linejoin="round"/><circle cx="499" cy="328" r="10" fill="#9ece6a"/><path d="M495 328 l3 3 l6 -6" stroke="#0d1017" stroke-width="2.6" stroke-linecap="round" stroke-linejoin="round" fill="none"/><text x="521" y="334" font-family="Inter, 'Segoe UI', 'Helvetica Neue', Arial, 'Noto Sans', sans-serif" font-size="17" fill="#e8ecf2">Screen turns right side up</text><circle cx="499" cy="364" r="10" fill="#9ece6a"/><path d="M495 364 l3 3 l6 -6" stroke="#0d1017" stroke-width="2.6" stroke-linecap="round" stroke-linejoin="round" fill="none"/><text x="521" y="370" font-family="Inter, 'Segoe UI', 'Helvetica Neue', Arial, 'Noto Sans', sans-serif" font-size="17" fill="#e8ecf2">Touch lands where you tap</text><rect x="842" y="30" width="357" height="380" rx="22" fill="#151a23" stroke="#252c38"/><text x="870" y="76" font-family="Inter, 'Segoe UI', 'Helvetica Neue', Arial, 'Noto Sans', sans-serif" font-size="15" font-weight="700" letter-spacing="2.5" fill="#8a93a6">TABLET</text><path d="M1127 66 H1163 M1127 76 H1163 M1127 66 A5 5 0 0 0 1127 76" stroke="#8a93a6" stroke-width="3" stroke-linecap="round" fill="none"/><rect x="958.5" y="98" width="124" height="182" rx="10" fill="#151a23" stroke="#c9d1dd" stroke-width="3"/><rect x="966.5" y="106" width="108" height="7" rx="3.5" fill="#1e2531"/><rect x="966.5" y="119.0" width="108.0" height="73.5" rx="5" fill="#1e2531"/><rect x="966.5" y="198.5" width="108.0" height="73.5" rx="5" fill="#253457"/><rect x="1052.5" y="108" width="10" height="8" rx="2" fill="#7aa2f7"/><path d="M1054.5 109 v-2 a3 3 0 0 1 6 0 v2" stroke="#7aa2f7" stroke-width="1.8" fill="none"/><g transform="rotate(32 1058.5 242)"><rect x="1053.5" y="144" width="11" height="92" rx="5.5" fill="#151a23" stroke="#c9d1dd" stroke-width="3"/><path d="M1054.0 232 L1059.0 246 L1064.0 232" fill="#c9d1dd"/></g><circle cx="1050.5" cy="244" r="9" fill="#7aa2f7" opacity="0.25"/><circle cx="880" cy="328" r="10" fill="#f7768e"/><path d="M876 328 h8" stroke="#0d1017" stroke-width="2.6" stroke-linecap="round" stroke-linejoin="round" fill="none"/><text x="902" y="334" font-family="Inter, 'Segoe UI', 'Helvetica Neue', Arial, 'Noto Sans', sans-serif" font-size="17" fill="#e8ecf2">Keyboard off, keys face down</text><circle cx="880" cy="364" r="10" fill="#9ece6a"/><path d="M876 364 l3 3 l6 -6" stroke="#0d1017" stroke-width="2.6" stroke-linecap="round" stroke-linejoin="round" fill="none"/><text x="902" y="370" font-family="Inter, 'Segoe UI', 'Helvetica Neue', Arial, 'Noto Sans', sans-serif" font-size="17" fill="#e8ecf2">Pen and touch follow the screen</text></svg>
